<?xml version="1.0" encoding="UTF-8" standalone="no"?>
<!-- Created with Inkscape (http://www.inkscape.org/) -->

<svg
   width="112.53629mm"
   height="112.53629mm"
   viewBox="0 0 112.53629 112.53629"
   version="1.1"
   id="svg1"
   xmlns="http://www.w3.org/2000/svg"
   xmlns:svg="http://www.w3.org/2000/svg">
  <defs
     id="defs1">
    <clipPath
       clipPathUnits="userSpaceOnUse"
       id="clipPath65">
      <path
         d="M 0,0 H 5464 V 3072 H 0 Z"
         transform="matrix(0.25000001,0,0,0.25000001,-137.28323,-368.25138)"
         clip-rule="evenodd"
         id="path65" />
    </clipPath>
    <clipPath
       clipPathUnits="userSpaceOnUse"
       id="clipPath61">
      <path
         d="M 0,0 H 5464 V 3072 H 0 Z"
         transform="matrix(0.25000001,0,0,0.25000001,-105,-284.00001)"
         clip-rule="evenodd"
         id="path61" />
    </clipPath>
  </defs>
  <g
     id="layer1"
     transform="translate(-65.88125,-153.72292)">
    <path
       id="path60"
       clip-path="url(#clipPath61)"
       style="fill:#040504;fill-opacity:1;fill-rule:nonzero;stroke:none"
       d="m 159.49972,-9.4488195e-6 c -2.61034,0 -5.21948,0.06381153882 -7.82667,0.1918945388195 -2.60718,0.12808301 -5.20839,0.31982617 -7.80615,0.57568362 -2.59777,0.25585739 -5.18892,0.57645739 -7.77099,0.95947269 -2.58208,0.3830156 -5.15223,0.8281515 -7.71241,1.3374024 -2.56017,0.5092509 -5.10705,1.0810727 -7.63916,1.7153321 -2.5321,0.6342601 -5.04747,1.3311276 -7.54541,2.0888673 -2.49794,0.7577398 -4.97487,1.5756837 -7.43262,2.4550783 -2.45774,0.8793945 -4.89207,1.8179635 -7.303707,2.8168945 -2.411627,0.998932 -4.797511,2.05679 -7.157227,3.172852 -2.359717,1.116062 -4.691051,2.289516 -6.993164,3.52002 -2.302107,1.230501 -4.572565,2.516418 -6.811524,3.858398 -2.238958,1.341981 -4.443354,2.737764 -6.61377,4.187989 -2.170416,1.450222 -4.304728,2.953814 -6.401368,4.508789 -2.096639,1.554976 -4.153574,3.160429 -6.171387,4.816407 -2.017816,1.655977 -3.994093,3.360776 -5.928223,5.113769 -1.93413,1.752993 -3.82316,3.552165 -5.668945,5.39795 -1.845785,1.845785 -3.646422,3.734815 -5.399415,5.668945 -1.752993,1.93413 -3.456327,3.910407 -5.112304,5.928223 -1.655978,2.017813 -3.261433,4.074748 -4.816407,6.171387 -1.554973,2.09664 -3.058565,4.230952 -4.508789,6.401368 -1.450223,2.170416 -2.846008,4.374812 -4.187989,6.61377 -1.34198,2.238958 -2.627897,4.509417 -3.858398,6.811524 -1.230504,2.302113 -2.403958,4.633463 -3.52002,6.993164 -1.116062,2.359717 -2.17392,4.745593 -3.172852,7.157227 -0.998931,2.411642 -1.9375,4.845962 -2.8168945,7.303712 -0.8793946,2.45775 -1.6988033,4.93614 -2.4565431,7.43408 -0.7577397,2.49793 -1.4531423,5.01184 -2.0874024,7.54395 -0.6342595,2.5321 -1.2060812,5.07898 -1.7153321,7.63916 -0.5092509,2.56018 -0.9558517,5.13179 -1.3388673,7.71387 -0.3830153,2.58206 -0.7021505,5.17175 -0.95800785,7.76953 -0.25585745,2.59775 -0.44760061,5.20043 -0.57568362,7.80761 -0.128083,2.60719 -0.19189453944,5.21486 -0.19189453944,7.8252 0,2.61034 0.0638115394,5.21947 0.19189453944,7.82666 0.12808301,2.60719 0.31982617,5.20984 0.57568362,7.80762 0.25585735,2.59776 0.57499255,5.18745 0.95800785,7.76953 0.3830156,2.58208 0.8296164,5.15369 1.3388673,7.71387 0.5092509,2.56018 1.0810726,5.1056 1.7153321,7.63769 0.6342601,2.53212 1.3296627,5.04748 2.0874024,7.54541 0.7577398,2.49794 1.5771485,4.97634 2.4565431,7.43409 0.8793945,2.45774 1.8179635,4.89208 2.8168945,7.30371 0.998932,2.41164 2.05679,4.79751 3.172852,7.15722 1.116062,2.35973 2.289516,4.69104 3.52002,6.99317 1.230501,2.3021 2.516418,4.57256 3.858398,6.81152 1.341981,2.23894 2.737764,4.44334 4.187989,6.61377 1.450222,2.17041 2.953814,4.30326 4.508789,6.39991 1.554976,2.09664 3.160429,4.15356 4.816407,6.17138 1.655977,2.01782 3.359311,3.99411 5.112304,5.92823 1.752993,1.93416 3.55363,3.82461 5.399415,5.67041 1.845785,1.84575 3.734815,3.64493 5.668945,5.39795 1.93413,1.75295 3.910407,3.45779 5.928223,5.11376 2.017813,1.65597 4.074748,3.26145 6.171387,4.81641 2.09664,1.55496 4.230952,3.05711 6.401368,4.50733 2.170416,1.45022 4.374812,2.84604 6.61377,4.18798 2.238959,1.34198 4.509417,2.62934 6.811524,3.85987 2.302113,1.2305 4.633463,2.40249 6.993164,3.51855 2.359717,1.11606 4.745593,2.17393 7.157227,3.17285 2.411647,0.99894 4.845967,1.93896 7.303707,2.81836 2.45775,0.87939 4.93468,1.6973 7.43262,2.45508 2.49793,0.75772 5.0133,1.45316 7.54541,2.0874 2.53211,0.63428 5.07899,1.20609 7.63916,1.71534 2.56018,0.50925 5.13033,0.95584 7.71241,1.33886 2.58206,0.383 5.17321,0.70212 7.77099,0.95801 2.59776,0.25586 5.19897,0.44761 7.80615,0.57569 2.60719,0.12804 5.21633,0.19332 7.82667,0.19335 2.61033,-3e-5 5.21947,-0.0653 7.82666,-0.19335 2.60718,-0.12808 5.20984,-0.31983 7.80761,-0.57569 2.59776,-0.25589 5.18746,-0.57498 7.76954,-0.95801 2.58207,-0.38303 5.15369,-0.82961 7.71386,-1.33886 2.56018,-0.50925 5.1056,-1.07962 7.6377,-1.71387 2.53212,-0.63428 5.04747,-1.33115 7.54541,-2.08887 2.49794,-0.75778 4.97633,-1.57569 7.43408,-2.45508 2.45775,-0.8794 4.89209,-1.81942 7.30371,-2.81836 2.41164,-0.99892 4.79751,-2.05679 7.15723,-3.17285 2.35973,-1.11606 4.68957,-2.28805 6.9917,-3.51855 2.3021,-1.23053 4.57257,-2.51789 6.81152,-3.85987 2.23894,-1.34194 4.44481,-2.73776 6.61524,-4.18798 2.17041,-1.45022 4.30325,-2.95237 6.3999,-4.50733 2.09665,-1.55496 4.15357,-3.16044 6.17139,-4.81641 2.01782,-1.65597 3.9941,-3.36081 5.92822,-5.11376 1.93417,-1.75302 3.82461,-3.5522 5.67041,-5.39795 1.84576,-1.8458 3.64493,-3.73628 5.39795,-5.67041 1.75296,-1.93412 3.45779,-3.91044 5.11377,-5.92823 1.65597,-2.01782 3.26145,-4.07472 4.81641,-6.17138 1.55495,-2.09663 3.0571,-4.2295 4.50732,-6.39991 1.45023,-2.17043 2.84604,-4.37483 4.18799,-6.61377 1.34198,-2.23896 2.62787,-4.50941 3.8584,-6.81152 1.2305,-2.30212 2.40396,-4.63346 3.52002,-6.99317 1.11606,-2.35972 2.17392,-4.74558 3.17285,-7.15722 0.99894,-2.41163 1.93896,-4.84597 2.81836,-7.30371 0.87939,-2.45775 1.6973,-4.93615 2.45508,-7.43409 0.75772,-2.49793 1.45315,-5.01331 2.0874,-7.54541 0.63428,-2.53211 1.20608,-5.07751 1.71533,-7.63769 0.50925,-2.56017 0.95585,-5.13179 1.33887,-7.71387 0.383,-2.58208 0.70212,-5.17177 0.95801,-7.76953 0.25586,-2.59778 0.4476,-5.20043 0.57568,-7.80762 0.12804,-2.60719 0.19333,-5.21632 0.19336,-7.82666 -3e-5,-2.61034 -0.0653,-5.21801 -0.19336,-7.8252 -0.12808,-2.60718 -0.31982,-5.20986 -0.57568,-7.80761 -0.25589,-2.59777 -0.57498,-5.18746 -0.95801,-7.76953 -0.38303,-2.58208 -0.82962,-5.15369 -1.33887,-7.71387 -0.50925,-2.56018 -1.08108,-5.10706 -1.71533,-7.63916 -0.63428,-2.5321 -1.32968,-5.04601 -2.0874,-7.54395 -0.75778,-2.49794 -1.57569,-4.97633 -2.45508,-7.43408 -0.8794,-2.45775 -1.81942,-4.89208 -2.81836,-7.303712 -0.99893,-2.411627 -2.05679,-4.797511 -3.17285,-7.157227 -1.11606,-2.359717 -2.28952,-4.691051 -3.52002,-6.993164 -1.23053,-2.302107 -2.51642,-4.572566 -3.8584,-6.811524 -1.34195,-2.238958 -2.73776,-4.443354 -4.18799,-6.61377 -1.45022,-2.170416 -2.95237,-4.304728 -4.50732,-6.401368 -1.55496,-2.096639 -3.16044,-4.153574 -4.81641,-6.171387 -1.65598,-2.017816 -3.36081,-3.994093 -5.11377,-5.928223 -1.75302,-1.93413 -3.55219,-3.82316 -5.39795,-5.668945 -1.8458,-1.845785 -3.73627,-3.644957 -5.67041,-5.39795 -1.93412,-1.752993 -3.91043,-3.457792 -5.92822,-5.113769 -2.01782,-1.655978 -4.07472,-3.261433 -6.17139,-4.816407 -2.09663,-1.554973 -4.22949,-3.058565 -6.3999,-4.508789 -2.17043,-1.450223 -4.3763,-2.846008 -6.61524,-4.187989 -2.23895,-1.34198 -4.50941,-2.627897 -6.81152,-3.858398 -2.30212,-1.230504 -4.63199,-2.403958 -6.9917,-3.52002 -2.35973,-1.116062 -4.74559,-2.17392 -7.15723,-3.172852 -2.41162,-0.998931 -4.84596,-1.9375 -7.30371,-2.8168945 C 210.77683,8.4443269 208.29844,7.626383 205.8005,6.8686432 203.30256,6.1109035 200.78719,5.414036 198.25509,4.7797759 195.72297,4.1455165 193.17757,3.5736947 190.61739,3.0644438 188.05723,2.5551929 185.4856,2.110057 182.90353,1.7270414 180.32145,1.3440261 177.73175,1.0234261 175.13399,0.76756871 172.53622,0.51171126 169.93356,0.3199681 167.32638,0.19188509 164.71919,0.06380209 162.11005,-9.4488195e-6 159.49972,-9.4488195e-6 Z M 171.01925,84.46728 c 0.53884,0 1.08003,0.03359 1.62011,0.0498 3.37773,-0.127226 6.41082,2.05533 7.36377,5.29834 2.0493,5.897289 4.07316,11.80422 6.06885,17.72022 11.68487,34.65653 23.36336,69.31812 35.03321,103.98339 1.46184,4.33191 2.94621,8.65513 4.32568,13.01075 1.63777,5.17632 0.0866,7.34621 -5.37158,7.47217 -1.20617,0.0287 -2.41411,0.0439 -3.62402,0.0439 l -0.21241,-0.001 c -2.35865,0 -4.71925,-0.0445 -7.07666,-0.082 -3.33284,0.1584 -6.33517,-2.00301 -7.24072,-5.21485 -2.73035,-8.05263 -33.10647,-97.31999 -36.98438,-108.51708 -0.27438,-0.79081 -0.60816,-1.56146 -0.9873,-2.3086 -0.35798,-0.70348 -0.73243,-1.47329 -1.23633,-2.08447 -0.43781,-0.53011 -1.05737,-0.94761 -1.74463,-0.98877 -0.74714,-0.0437 -1.46292,0.36633 -1.96436,0.92139 -0.86433,0.95544 -1.40856,2.32764 -1.91748,3.49511 -0.90802,2.08302 -1.52708,4.29034 -2.26171,6.43946 -0.51639,1.51174 -1.03174,3.02342 -1.54688,4.53514 -0.61989,1.81609 -1.23875,3.63189 -1.85742,5.44922 -0.70724,2.07428 -1.41366,4.14691 -2.11963,6.22119 -0.77709,2.28383 -1.55346,4.56725 -2.33057,6.85108 -0.83195,2.44474 -1.66415,4.88973 -2.49609,7.33447 -0.87062,2.55824 -1.73973,5.11755 -2.61035,7.67579 -0.89183,2.6231 -1.78588,5.24771 -2.67774,7.87207 -0.89804,2.64057 -1.79602,5.28279 -2.69531,7.92334 -0.88811,2.61188 -1.77643,5.22191 -2.66455,7.83251 -0.86065,2.53206 -1.72206,5.06464 -2.58399,7.59668 -0.81819,2.40605 -1.63685,4.81122 -2.45507,7.21729 -0.76087,2.23021 -1.52115,4.46122 -2.28077,6.69141 -0.68478,2.00942 -1.36892,4.01673 -2.05371,6.0249 -0.5937,1.7375 -1.18755,3.47587 -1.78125,5.21338 -0.4852,1.41945 -0.97128,2.83865 -1.45898,4.25683 -0.36049,1.05272 -0.72125,2.10526 -1.08545,3.15674 -0.22076,0.63863 -0.44073,1.27696 -0.6665,1.9131 -0.0299,0.0848 -0.0594,0.16983 -0.0894,0.25342 -0.77954,2.39482 -2.99371,4.02986 -5.51074,4.07226 -4.70864,0.17337 -9.43858,0.27315 -14.13721,0 -3.583531,-0.20832 -4.920009,-2.52948 -3.817383,-6.20654 1.399486,-4.65996 2.996714,-9.25973 4.548343,-13.87354 9.10789,-27.06915 18.22287,-54.13739 27.3457,-81.20654 4.32817,-12.85729 8.6647,-25.71286 13.00781,-38.566417 0.0923,-0.278149 0.1894,-0.558274 0.29297,-0.836426 1.95826,-5.279869 3.78182,-6.597453 9.43213,-6.629883 6.83275,-0.03991 13.66542,-0.01253 20.50196,-0.0088 z m -10.2378,77.35254 c 7.60616,0 13.77393,6.07566 13.77393,13.57325 0,7.49759 -6.16777,13.5747 -13.77393,13.5747 -7.60484,0 -13.76968,-6.07689 -13.77099,-13.57324 v -0.001 c 0,-7.49759 6.16492,-13.57325 13.77099,-13.57325 z"
       transform="matrix(0.35277776,0,0,0.35277776,65.881181,153.72292)" />
  </g>
</svg>
