<?xml version="1.0" encoding="UTF-8" standalone="no"?>
<!-- Created with Inkscape (http://www.inkscape.org/) -->

<svg
   width="118.38882mm"
   height="26.811012mm"
   viewBox="0 0 118.38882 26.811012"
   version="1.1"
   id="svg1"
   xmlns="http://www.w3.org/2000/svg"
   xmlns:svg="http://www.w3.org/2000/svg">
  <defs
     id="defs1">
    <clipPath
       clipPathUnits="userSpaceOnUse"
       id="clipPath45">
      <path
         d="M 0,0 H 1344 V 304 H 0 Z"
         transform="matrix(0.25000001,0,0,0.25000001,-0.20457501,1.2e-4)"
         id="path45" />
    </clipPath>
  </defs>
  <g
     id="layer1"
     transform="translate(-7.7416896,-8.9354152)">
    <path
       d="m 233.76152,75.963608 h -0.003 c -2.7005,0 -5.40418,0.07239 -8.10276,-0.0128 -9.60287,-0.237 -17.86384,-6.859482 -20.18385,-16.180527 -0.2005,-0.807076 -0.30426,-1.635277 -0.30875,-2.466694 -0.0621,-1.11581 0.72831,-2.098389 1.83193,-2.275818 0.34013,-0.09544 0.69115,-0.149242 1.04408,-0.160778 1.86778,-0.01601 3.7356,-0.02241 5.60272,-0.0045 1.71985,0.0173 2.86257,0.847427 3.58766,2.42506 0.50153,1.154884 1.14078,2.245716 1.9043,3.248154 1.773,2.210476 4.47218,3.471687 7.30464,3.414039 4.74443,0.07302 9.49015,0.08006 14.23651,0.02114 3.35895,-0.0378 6.23432,-1.230468 8.22637,-4.062267 3.66002,-5.201778 1.4303,-11.648105 -4.75662,-13.866916 -3.0028,-1.078019 -6.14206,-1.403409 -9.28386,-1.711506 -3.44033,-0.336918 -6.89662,-0.522038 -10.26776,-1.388035 -4.4735,-1.149117 -8.68052,-2.827957 -12.23804,-5.883305 -5.30299,-4.554195 -7.43085,-10.411236 -6.81017,-17.241888 0.93454,-10.2953003 8.51653,-18.2167808 18.78493,-19.30504745 6.48349,-0.70394667 13.02527,-0.68152796 19.50298,0.0685371 8.75482,1.03830505 16.2324,8.22445325 17.7761,16.66412635 0.54572,2.986807 -0.36447,4.126318 -3.3782,4.176281 -0.96079,0.01601 -1.92096,0.01025 -2.88174,0.0051 -0.60466,-0.0032 -1.2087,-0.007 -1.81334,-0.0051 -1.75316,0.129387 -3.36924,-0.950552 -3.92138,-2.619142 -0.98066,-2.484631 -2.56594,-4.490142 -5.07621,-5.546383 -1.09981,-0.506663 -2.28415,-0.805151 -3.49221,-0.878812 -4.94424,-0.08968 -9.90005,-0.211377 -14.83348,0.03395 -5.02881,0.238278 -8.91301,4.508078 -8.67474,9.536907 v 6.39e-4 c 0,0.03651 0.004,0.07366 0.006,0.110172 0.1377,3.610691 2.0465,6.083149 5.20177,7.667834 2.63834,1.323339 5.4913,1.846658 8.39356,2.139383 3.23852,0.326033 6.49627,0.502821 9.71946,0.936457 4.25186,0.525238 8.34551,1.9421 12.01192,4.158989 7.21239,4.432491 10.34911,10.992836 9.73418,19.309532 -0.79554,10.840389 -9.64577,19.331302 -20.50988,19.675915 -1.02806,0.04164 -2.0574,0.0538 -3.08671,0.0538 -1.75058,0.0038 -3.49861,-0.03651 -5.24663,-0.03651 m 96.77953,0.03139 c -1.21125,0 -2.42188,-0.02242 -3.63248,-0.04163 -1.71152,0.0807 -3.25324,-1.029343 -3.71893,-2.678078 -0.1012,-0.298484 -0.20304,-0.596336 -0.30423,-0.894821 -0.16654,-0.489372 -0.3331,-0.978737 -0.49961,-1.46875 -0.22485,-0.659744 -0.4497,-1.319496 -0.6745,-1.979248 -0.27545,-0.80899 -0.55087,-1.618629 -0.82696,-2.42762 -0.31897,-0.937744 -0.63858,-1.87548 -0.95822,-2.813228 l -1.06842,-3.136051 c -0.38559,-1.131825 -0.77182,-2.263646 -1.15744,-3.39547 -0.40802,-1.197155 -0.81604,-2.394314 -1.22406,-3.592114 -0.4234,-1.241993 -0.84677,-2.483989 -1.27018,-3.725982 -0.43173,-1.265698 -0.86279,-2.531391 -1.29452,-3.797722 -0.43234,-1.268261 -0.86472,-2.536518 -1.29706,-3.805416 -0.42599,-1.250321 -0.85257,-2.500641 -1.27853,-3.750965 -0.41312,-1.211247 -0.82563,-2.422497 -1.2388,-3.633748 -0.39261,-1.151039 -0.78464,-2.302078 -1.17728,-3.453119 -0.36447,-1.070331 -0.72958,-2.140022 -1.09402,-3.210352 l -0.99027,-2.904184 c -0.28824,-0.844864 -0.57648,-1.689728 -0.86471,-2.535231 -0.38562,-1.130542 -0.78083,-2.284145 -1.17283,-3.422373 -0.38626,-1.123497 -0.73407,-2.250196 -1.30349,-3.297468 l -0.0673,-0.122982 c -0.20881,-0.374072 -0.43943,-0.79234 -0.83014,-1.003718 -0.30167,-0.163335 -0.68344,-0.171022 -0.99024,-0.01729 -0.31387,0.15629 -0.52911,0.455419 -0.71612,0.751986 -0.6995,1.111966 -1.07355,2.346916 -1.49503,3.576742 -0.22354,0.652702 -0.44644,1.305406 -0.66934,1.95811 -0.27927,0.816681 -0.55789,1.634003 -0.83655,2.451323 -0.32666,0.958241 -0.65332,1.917118 -0.98001,2.875357 -0.36703,1.077379 -0.7334,2.154758 -1.09982,3.232134 -0.39966,1.172178 -0.7981,2.344995 -1.19715,3.517812 -0.42404,1.245198 -0.84741,2.490395 -1.27081,3.735596 -0.44067,1.294517 -0.88074,2.589035 -1.32077,3.883553 -0.44965,1.321422 -0.89868,2.6422 -1.34833,3.963626 -0.45028,1.32462 -0.9006,2.649243 -1.35153,3.973866 -0.44388,1.304771 -0.88779,2.609539 -1.33163,3.914303 -0.4292,1.262493 -0.85898,2.524986 -1.28815,3.787479 -0.40738,1.19651 -0.81476,2.393673 -1.22278,3.590191 -0.37726,1.10812 -0.75455,2.216248 -1.13183,3.324368 -0.34009,0.996665 -0.6796,1.992698 -1.01972,2.989372 -0.29401,0.862152 -0.58801,1.723678 -0.88266,2.585197 -0.24084,0.70459 -0.4823,1.408531 -0.72381,2.11248 -0.17933,0.523316 -0.35932,1.047272 -0.53995,1.570588 -0.11017,0.319625 -0.22098,0.639892 -0.33371,0.958885 -0.016,0.04547 -0.0321,0.09095 -0.0487,0.135788 -0.40097,1.229828 -1.53793,2.069565 -2.83114,2.091339 -2.41675,0.08903 -4.84693,0.140282 -7.25919,0 -1.84024,-0.106972 -2.5256,-1.299004 -1.95874,-3.187294 0.71805,-2.393028 1.53729,-4.755318 2.33539,-7.124657 4.6759,-13.900864 9.35626,-27.801086 14.04114,-41.701952 2.22522,-6.602623 4.45233,-13.204604 6.68075,-19.8053048 0.0481,-0.1428388 0.0974,-0.2863181 0.14926,-0.4291575 1.00754,-2.71137928 1.94211,-3.38842354 4.84436,-3.40507743 3.50946,-0.0204971 7.01834,-0.006405 10.52845,-0.004484 0.2767,0 0.55535,0.0172944 0.8327,0.0256214 1.73456,-0.0646939 3.29172,1.05559963 3.78106,2.72098733 1.05176,3.0284441 2.0907,6.0620115 3.1175,9.100064 5.9992,17.797231 11.99655,35.596383 17.99066,53.398099 0.7507,2.224579 1.51422,4.445305 2.22201,6.682053 0.84168,2.658211 0.0429,3.772102 -2.75943,3.836792 -0.62002,0.01474 -1.24072,0.02242 -1.86074,0.02242 l -0.11145,-6.49e-4 z m -205.32246,0 c -1.21124,0 -2.42314,-0.02242 -3.63374,-0.04163 -1.71152,0.08134 -3.25328,-1.028702 -3.71831,-2.678078 C 116.4642,69.139993 100.86465,23.298271 98.873224,17.5482 c -0.140915,-0.406099 -0.311943,-0.801949 -0.506653,-1.185629 -0.183838,-0.361261 -0.376,-0.75647 -0.634781,-1.070331 -0.224823,-0.272228 -0.543167,-0.486806 -0.896103,-0.507945 -0.383682,-0.02242 -0.751343,0.188318 -1.008842,0.473355 -0.443886,0.490649 -0.72316,1.195238 -0.984505,1.794775 -0.466301,1.069692 -0.784012,2.203438 -1.161278,3.307077 -0.265182,0.776327 -0.530365,1.552014 -0.794899,2.328339 -0.318352,0.932617 -0.636063,1.865236 -0.953766,2.798494 -0.363182,1.065207 -0.725715,2.129772 -1.088257,3.194985 -0.399055,1.172815 -0.798111,2.345632 -1.197166,3.518449 -0.427239,1.255448 -0.854469,2.510891 -1.281708,3.766339 -0.44709,1.313736 -0.893539,2.628109 -1.340629,3.941845 -0.457993,1.347042 -0.916604,2.694725 -1.374596,4.042408 -0.461182,1.356014 -0.922371,2.712661 -1.384186,4.068672 -0.45607,1.341274 -0.912117,2.681915 -1.368179,4.022552 -0.441971,1.300286 -0.884575,2.600563 -1.327187,3.900852 -0.420189,1.235585 -0.841018,2.470536 -1.261215,3.706128 -0.390724,1.145275 -0.780807,2.291187 -1.170891,3.436462 -0.351654,1.031895 -0.703308,2.06316 -1.054962,3.094418 -0.304886,0.892265 -0.609787,1.78453 -0.914688,2.676796 -0.249161,0.728927 -0.498329,1.457855 -0.748779,2.186142 -0.185112,0.540603 -0.370873,1.081214 -0.557907,1.621185 -0.113373,0.327957 -0.226105,0.655914 -0.342041,0.982574 -0.01537,0.04356 -0.03075,0.08712 -0.04612,0.130036 -0.40033,1.229828 -1.537277,2.069565 -2.829872,2.091339 -2.418015,0.08903 -4.846924,0.140282 -7.259812,0 -1.840259,-0.106972 -2.526272,-1.299004 -1.960045,-3.187294 0.718689,-2.393028 1.538575,-4.755318 2.335396,-7.124657 4.677178,-13.900864 9.3582,-27.801086 14.043061,-41.701952 2.222648,-6.602623 4.449791,-13.204604 6.68013,-19.8053048 0.0474,-0.1428388 0.09672,-0.2863181 0.149887,-0.4291575 1.00563,-2.71137928 1.9421,-3.38842354 4.843712,-3.40507743 3.508842,-0.0204971 7.017684,-0.006405 10.528447,-0.004484 0.27672,0 0.5547,0.0172944 0.83206,0.0256214 1.73457,-0.0653345 3.29234,1.05559963 3.78171,2.72098733 1.05239,3.0284441 2.09134,6.0620115 3.11619,9.100064 6.00053,17.797231 11.99783,35.596383 17.99067,53.398099 0.75069,2.224579 1.51359,4.445305 2.22199,6.682053 0.84104,2.658211 0.0442,3.772102 -2.75876,3.836792 -0.61939,0.01474 -1.23942,0.02242 -1.86074,0.02242 l -0.10954,-6.49e-4 z m 61.1479,-0.01601 h -1.6942 -2.88881 c -1.76979,0.03652 -3.46401,-0.721878 -4.6144,-2.067642 -4.79632,-5.362541 -9.59329,-10.722531 -14.39151,-16.079952 -2.40777,-2.687687 -4.80912,-5.381764 -7.23932,-8.05151 -0.47207,-0.525883 -1.00691,-0.991551 -1.59366,-1.386757 -1.00691,-0.666157 -1.92671,-0.33564 -2.1983,0.83461 -0.20431,0.934543 -0.3049,1.888939 -0.29977,2.845253 -0.0301,6.488609 -0.0198,12.976578 -0.0346,19.465179 0.008,0.681526 -0.0384,1.36306 -0.13836,2.037537 -0.21713,1.326546 -0.94798,2.193191 -2.2758,2.264938 -2.36613,0.128739 -4.73675,0.129379 -7.10289,0.0032 -1.42262,-0.07943 -2.15219,-0.935822 -2.34308,-2.364853 -0.10632,-0.978088 -0.14859,-1.962593 -0.12809,-2.946457 -0.008,-10.803879 -0.01,-21.608406 -0.005,-32.413566 h 0.0122 c 0,-11.231759 0.001,-22.464804 0.004,-33.6991253 0,-0.6053042 0.0455,-1.2099678 0.13515,-1.8088667 0.11976,-1.1503991 1.00691,-2.0727676 2.15283,-2.23482267 0.3696,-0.0832694 0.74686,-0.1287473 1.12607,-0.13579318 2.93428,0 5.8724,-0.019216 8.80989,-0.0377915 6.98502,-0.0461185 13.97197,-0.0922369 20.94672,0.14924435 9.19873,0.31578321 15.99478,4.9487636 19.75601,13.377547 6.31372,14.148751 -3.22574,30.05961 -18.67542,31.464944 -0.85574,0.05829 -1.70703,0.168457 -2.54933,0.329872 -1.54753,0.330517 -1.99205,1.34576 -1.12605,2.685757 0.58288,0.854473 1.23625,1.658344 1.95235,2.404564 6.39379,6.976696 12.79274,13.949547 19.19679,20.919197 0.60467,0.641174 1.13504,1.348961 1.57956,2.109916 0.55983,1.001793 0.19792,1.774277 -0.91149,2.086861 -0.58415,0.158844 -1.18689,0.239555 -1.7922,0.240204 -1.02292,0.009 -2.04457,0.01344 -3.06623,0.0128 l -0.6034,-0.0045 z M 151.4619,15.647108 c -0.0218,0.352934 -0.0327,0.70587 -0.0327,1.058163 0,4.164751 -0.0198,8.326938 0.0147,12.490412 0.007,0.885217 0.0564,1.854341 0.47913,2.65373 0.34589,0.652704 0.94991,1.045988 1.64873,1.24135 0.4503,0.125546 0.91853,0.179993 1.3842,0.20818 1.58597,0.09479 3.1969,0.02562 4.78992,0.01537 1.64424,-0.01089 3.28785,-0.02114 4.93211,-0.03202 1.61734,0 3.23468,-0.02882 4.85204,-0.02114 0.71099,0.0032 1.42199,6.41e-4 2.13296,-0.01922 0.3318,-0.009 0.6431,-0.07046 0.97299,-0.10825 0.35485,-0.04035 0.71097,-0.07238 1.062,-0.141559 1.06969,-0.212658 2.10863,-0.580963 3.06943,-1.099156 0.91595,-0.494489 1.75891,-1.122856 2.4917,-1.86203 0.71673,-0.723162 1.32717,-1.550731 1.80372,-2.450681 0.47592,-0.898032 0.81732,-1.866519 1.00629,-2.865111 0.19343,-1.02165 0.2261,-2.072767 0.098,-3.105308 -0.12617,-1.017809 -0.40736,-2.013197 -0.81987,-2.951579 -1.82293,-4.146816 -5.21714,-6.186916 -9.68101,-6.363062 -2.52501,-0.09864 -5.05319,-0.09672 -7.57945,-0.09352 h -2.25914 c -0.93071,0 -1.86205,-0.009 -2.79274,-0.009 -1.41558,0.0038 -2.83116,0.01665 -4.24353,0.08263 -2.28096,0.101845 -3.19243,1.096593 -3.3295,3.371769 M 41.060787,73.285545 C 36.13316,67.635391 31.140842,62.046089 26.169014,56.435017 22.890123,52.731449 19.608669,49.029808 16.32337,45.330727 c -0.498974,-0.568791 -1.057519,-1.083142 -1.665386,-1.533436 -1.147838,-0.831413 -2.118244,-0.472717 -2.412889,0.921726 -0.174226,0.916607 -0.254293,1.848579 -0.23956,2.781837 -0.02178,8.003472 -0.01409,16.005665 -0.02754,24.007851 0.0013,0.682167 -0.04676,1.363053 -0.144762,2.037537 -0.190878,1.27018 -0.959519,2.167564 -2.2232924,2.228416 C 7.1970472,75.888023 4.771986,75.890594 2.3610175,75.771446 1.0607338,75.705482 0.30234173,74.769661 0.13452189,73.462326 0.0474093,72.76223 0.00449354,72.056999 0.00769621,71.351768 -6.3073164e-4,60.243633 -0.0019118,49.135498 0.00257194,38.027359 0.00769621,26.919226 0.00961781,15.811726 0.00897727,4.7048702 0.00513407,3.9484003 0.06021997,3.1925704 0.17551604,2.4450674 0.307466,1.375376 1.1279898,0.52154452 2.1906354,0.34795982 2.5333209,0.26084727 2.8843331,0.21024509 3.2372675,0.19935602 5.0781612,0.18654536 6.92418,0.14555119 8.7644339,0.20832349 10.867307,0.27878222 11.767257,1.1909022 11.940201,3.2854481 c 0.03843,0.4522164 0.04228,0.9089169 0.04228,1.3630552 0.007,4.84692 0.04163,9.6931977 0,14.5407567 -0.07238,2.117606 0.696901,4.177561 2.140023,5.728934 1.228543,1.340637 2.403281,2.728035 3.616452,4.080843 0.351013,0.397772 0.73405,0.765436 1.145914,1.099155 1.243917,0.990906 2.430826,0.98258 3.488987,-0.210735 1.184988,-1.340637 2.245073,-2.791447 3.310919,-4.227524 5.59827,-7.538443 11.184366,-15.086491 16.758287,-22.6441497 1.35281,-1.8370513 2.994492,-2.92211536 5.35038,-2.85678091 1.202919,0.0326672 2.409046,0.027543 3.613892,0.0230592 1.041511,-0.003203 2.08366,-0.008327 3.125164,0.0121701 1.041507,0.0204971 2.263649,-0.0839099 2.81771,1.04919421 0.554699,1.1331044 -0.267746,2.0407406 -0.882659,2.8804801 -2.751736,3.771463 -5.542542,7.516025 -8.323094,11.268911 -5.724453,7.726118 -11.449543,15.453519 -17.175276,23.182199 -0.222265,0.306816 -0.427234,0.625164 -0.614269,0.954395 -0.792341,1.178585 -0.703308,2.7402 0.217138,3.821427 1.131825,1.416858 2.334111,2.782478 3.538952,4.141044 7.107361,8.000275 14.218571,15.996697 21.335537,23.989914 0.424034,0.467591 0.819885,0.959526 1.184986,1.47451 1.0761,1.55906 0.643101,2.585831 -1.213169,2.869591 -0.549576,0.07942 -1.103637,0.119141 -1.658985,0.117859 -0.789135,0.0032 -1.581474,0 -2.371895,-0.0083 -1.456569,-0.0096 -2.915066,-0.01986 -4.368438,0.03523 -0.110173,0.0045 -0.2197,0.0064 -0.327317,0.0064 h -0.05701 c -2.170765,-6.41e-4 -4.223037,-0.991547 -5.573921,-2.691521 M 89.676018,46.903236 c 0,-3.85025 3.166168,-6.970928 7.072136,-6.970928 3.905986,0 7.072776,3.120678 7.072776,6.970928 0,3.850247 -3.16679,6.970929 -7.072776,6.970929 -3.905335,0 -7.071488,-3.120682 -7.072136,-6.970288 z m 205.300662,0 c 0,-3.85025 3.18345,-6.970928 7.10993,-6.970928 3.92709,0 7.11056,3.120678 7.11056,6.970928 0,3.850247 -3.18347,6.970929 -7.11056,6.970929 -3.92648,0 -7.10928,-3.120682 -7.10993,-6.970288 z"
       style="fill:#040504;fill-opacity:1;fill-rule:nonzero;stroke:none"
       transform="matrix(0.35277776,0,0,0.35277776,7.74168,8.935274)"
       clip-path="url(#clipPath45)"
       id="path46" />
  </g>
</svg>
